<?xml version="1.0" standalone="no"?>
<!DOCTYPE svg PUBLIC "-//W3C//DTD SVG 20010904//EN"
 "http://www.w3.org/TR/2001/REC-SVG-20010904/DTD/svg10.dtd">
<svg version="1.0" xmlns="http://www.w3.org/2000/svg"
 width="166.000000pt" height="166.000000pt" viewBox="0 0 166.000000 166.000000"
 preserveAspectRatio="xMidYMid meet">
<metadata>
Created by potrace 1.14, written by Peter Selinger 2001-2017
</metadata>
<g transform="translate(0.000000,166.000000) scale(0.100000,-0.100000)"
fill="#000000" stroke="none">
<path d="M723 1639 c-62 -8 -180 -43 -243 -72 -239 -110 -422 -361 -459 -628
-48 -353 156 -715 481 -851 125 -53 209 -68 348 -64 175 5 303 45 440 139 217
148 354 414 349 673 -2 118 -13 175 -51 281 -125 346 -498 571 -865 522z m315
-39 c243 -69 442 -249 531 -479 179 -464 -104 -976 -593 -1072 -70 -14 -218
-13 -296 1 -319 58 -571 314 -635 645 -29 145 1 359 67 488 113 222 326 384
568 432 94 18 268 11 358 -15z"/>
<path d="M660 1530 c-190 -51 -343 -166 -444 -334 -100 -165 -123 -404 -60
-596 72 -214 257 -391 479 -459 64 -19 103 -24 195 -24 212 -1 373 64 516 208
275 276 283 713 17 995 -106 113 -222 181 -367 214 -89 21 -248 19 -336 -4z
m335 -55 c154 -38 316 -155 399 -288 221 -355 77 -806 -307 -966 -95 -39 -162
-50 -277 -47 -326 9 -596 265 -628 594 -32 330 183 632 503 706 115 26 205 26
310 1z"/>
<path d="M587 1197 c-62 -123 -88 -241 -82 -372 2 -49 7 -106 10 -125 11 -57
64 -212 88 -255 l23 -40 191 -3 191 -2 33 70 c33 67 36 70 69 70 99 0 171 127
171 302 0 136 -53 218 -140 218 -23 0 -41 5 -41 11 0 20 -78 179 -88 179 -5 0
-15 -7 -22 -15 -11 -13 -10 -22 8 -53 25 -44 59 -131 67 -169 4 -16 9 -72 12
-127 8 -139 -15 -258 -77 -388 l-22 -47 -161 2 -160 2 -17 30 c-55 101 -90
261 -86 390 4 111 18 167 66 271 35 77 36 82 19 92 -10 7 -20 12 -22 12 -1 0
-15 -24 -30 -53z m628 -249 c17 -44 23 -151 10 -208 -19 -86 -76 -158 -117
-148 -14 3 -14 9 0 58 11 38 16 101 16 207 1 127 4 153 16 156 26 5 58 -22 75
-65z"/>
<path d="M646 1133 c-14 -29 -26 -57 -26 -62 0 -5 67 -9 150 -9 82 0 147 4
145 9 -3 4 -1 11 5 14 6 4 9 1 8 -7 -2 -9 10 -13 43 -13 l46 -1 -26 57 c-14
32 -34 60 -43 62 -10 3 -18 0 -18 -5 0 -6 -8 -4 -17 3 -15 12 -16 12 -10 -5 6
-15 5 -17 -6 -8 -8 7 -17 9 -20 5 -4 -3 -7 -1 -7 7 0 10 -3 10 -15 0 -12 -10
-15 -10 -15 0 0 10 -3 10 -15 0 -11 -9 -15 -9 -15 -1 0 9 -5 9 -20 1 -12 -6
-20 -7 -20 -1 0 10 -25 9 -36 -2 -4 -3 -12 -3 -18 0 -28 18 -45 7 -70 -44z
m254 11 c0 -8 -19 -13 -24 -6 -3 5 1 9 9 9 8 0 15 -2 15 -3z m-94 -39 c-1 -8
-5 -17 -8 -21 -5 -4 -4 16 1 34 3 9 9 -1 7 -13z"/>
<path d="M597 1001 c-6 -15 -11 -82 -12 -156 0 -135 13 -198 65 -319 l19 -46
86 0 c59 0 84 3 80 11 -4 6 2 5 14 -3 17 -11 25 -11 42 0 14 9 19 10 14 2 -5
-8 -1 -11 11 -8 11 2 18 10 16 17 -1 7 2 10 8 6 6 -3 8 -11 5 -16 -4 -5 -1 -9
5 -9 12 0 34 50 25 58 -2 3 2 10 10 16 9 6 17 20 20 31 2 11 11 43 18 71 18
63 8 89 -31 80 -24 -6 -25 -5 -8 5 14 9 24 9 37 1 12 -8 20 -8 24 -2 3 6 1 10
-4 10 -6 0 -20 9 -31 20 -20 20 -21 20 -24 -2 0 -7 -10 -14 -21 -15 -18 -3
-18 -2 -2 5 10 4 18 11 17 15 0 4 4 15 9 25 6 9 11 12 11 5 0 -15 28 -43 43
-43 6 0 2 7 -9 16 -17 14 -17 15 -1 10 12 -4 17 -2 14 6 -2 7 -11 12 -20 10
-8 -1 -18 7 -22 18 -7 21 -27 29 -22 8 1 -6 -7 -13 -18 -14 -15 -2 -16 -2 -2
2 9 3 15 9 12 14 -11 18 19 22 32 5 21 -30 40 -27 41 6 0 20 -3 27 -11 22 -9
-5 -9 -3 0 8 12 15 12 57 -1 77 -4 7 -1 12 6 12 10 0 10 2 -1 9 -7 5 -11 13
-8 18 4 6 0 19 -8 29 -8 10 -15 14 -15 7 0 -6 5 -15 11 -19 12 -7 -6 -24 -26
-24 -5 0 -3 5 5 10 12 7 12 12 3 21 -16 16 -43 20 -43 8 0 -6 -6 -7 -12 -2
-17 10 -40 10 -55 -1 -8 -5 -13 -5 -13 1 0 5 -7 10 -15 10 -8 0 -15 -5 -15
-11 0 -6 -4 -5 -9 2 -4 8 -12 14 -16 14 -4 0 -12 -6 -16 -14 -6 -8 -12 -9 -16
-3 -5 6 -48 11 -96 11 -86 1 -89 1 -100 -25z m382 -8 c-7 -10 -14 -19 -15 -21
-1 -2 -4 4 -8 13 -3 9 -2 13 4 10 6 -3 10 -1 10 4 0 6 5 11 11 11 8 0 7 -6 -2
-17z m-69 3 c0 -2 -8 -10 -17 -17 -16 -13 -17 -12 -4 4 13 16 21 21 21 13z
m35 -16 c4 -6 3 -10 -2 -9 -20 3 -27 -2 -13 -11 12 -7 10 -9 -7 -7 -21 1 -21
2 -6 19 19 21 20 21 28 8z m47 -19 c-8 -4 -13 -12 -13 -17 1 -5 -11 -10 -26
-11 -19 -2 -24 0 -14 6 8 5 20 7 28 4 8 -3 13 -2 12 3 -3 17 1 24 14 24 9 0 9
-2 -1 -9z m23 -56 c-1 -32 3 -49 13 -54 8 -5 11 -10 6 -13 -5 -3 -17 3 -26 14
-10 10 -14 18 -9 18 6 0 9 9 8 20 -1 22 -22 22 -22 -1 0 -7 -9 -15 -20 -16
-18 -3 -18 -2 -2 5 10 4 18 12 18 17 -1 6 5 17 13 27 8 9 12 19 9 22 -4 3 -2
6 4 6 6 0 10 -20 8 -45z m-55 -9 c0 -2 -7 -7 -16 -10 -8 -3 -12 -2 -9 4 6 10
25 14 25 6z m-16 -45 c-2 -3 -12 3 -22 13 -16 17 -16 18 5 5 12 -7 20 -15 17
-18z m-19 -19 c-3 -3 -11 0 -18 7 -9 10 -8 11 6 5 10 -3 15 -9 12 -12z m-10
-51 c-9 -8 -36 -10 -30 -2 2 4 11 8 20 8 8 0 13 -3 10 -6z m45 -5 c0 -2 -7 -7
-16 -10 -8 -3 -12 -2 -9 4 6 10 25 14 25 6z m-54 -36 c0 -12 -4 -16 -9 -11 -5
5 -6 14 -3 20 10 15 12 14 12 -9z m39 -8 c-3 -3 -11 0 -18 7 -9 10 -8 11 6 5
10 -3 15 -9 12 -12z m61 -18 c-5 -12 -2 -15 11 -10 15 6 16 5 6 -5 -15 -15
-40 2 -29 20 11 17 19 13 12 -5z m-36 -3 c0 -6 -5 -13 -12 -17 -6 -4 -8 -3 -4
4 3 5 0 13 -6 15 -8 3 -6 6 5 6 9 1 17 -3 17 -8z m-47 -46 c-7 -21 -12 -19
-10 4 0 11 5 18 9 15 4 -3 5 -11 1 -19z m83 10 c18 -13 18 -14 -4 -8 -12 3
-25 9 -28 14 -8 14 10 11 32 -6z m-16 -22 c0 -3 -6 -3 -12 0 -7 2 -22 0 -33
-5 -19 -9 -19 -8 -2 6 17 13 47 12 47 -1z m-96 -11 c3 -5 -1 -9 -9 -9 -8 0
-12 4 -9 9 3 4 7 8 9 8 2 0 6 -4 9 -8z m107 -19 c-8 -15 -10 -15 -11 -2 0 17
10 32 18 25 2 -3 -1 -13 -7 -23z m-73 -8 c-3 -3 -9 2 -12 12 -6 14 -5 15 5 6
7 -7 10 -15 7 -18z m42 15 c0 -5 -2 -10 -4 -10 -3 0 -8 5 -11 10 -3 6 -1 10 4
10 6 0 11 -4 11 -10z m19 -34 c9 -11 9 -16 0 -22 -8 -4 -9 -3 -5 4 4 7 2 12
-3 12 -6 0 -11 5 -11 10 0 14 5 13 19 -4z m-50 1 c-2 -1 -13 -10 -25 -20 -17
-14 -21 -14 -21 -2 0 8 4 12 8 9 4 -2 10 0 14 6 3 5 11 10 17 10 6 0 9 -1 7
-3z m31 -27 c0 -5 -2 -10 -4 -10 -3 0 -8 5 -11 10 -3 6 -1 10 4 10 6 0 11 -4
11 -10z m-47 -25 c-3 -9 -8 -14 -10 -11 -3 3 -2 9 2 15 9 16 15 13 8 -4z m42
-14 c3 -5 2 -12 -3 -15 -5 -3 -9 1 -9 9 0 17 3 19 12 6z"/>
</g>
</svg>
